<svg id="svg2912" xmlns="http://www.w3.org/2000/svg" xmlns:xlink="http://www.w3.org/1999/xlink" viewBox="0 0 1052.36 505.87">
  <defs>
    <style>
      .cls-1, .cls-11 {
        stroke: #fff;
      }

      .cls-1 {
        stroke-width: 4.5px;
        fill: url(#Gradiente_sem_nome_35);
      }

      .cls-2 {
        fill: #070707;
      }

      .cls-3 {
        fill: #fff;
      }

      .cls-4 {
        fill: url(#Gradiente_sem_nome_38);
      }

      .cls-5 {
        fill: url(#Gradiente_sem_nome_38-2);
      }

      .cls-6 {
        fill: url(#Gradiente_sem_nome_38-3);
      }

      .cls-7 {
        fill: url(#Gradiente_sem_nome_38-4);
      }

      .cls-8 {
        fill: url(#Gradiente_sem_nome_38-5);
      }

      .cls-9 {
        fill: url(#Gradiente_sem_nome_38-6);
      }

      .cls-10 {
        fill: url(#Gradiente_sem_nome_7);
      }

      .cls-11 {
        fill: red;
        stroke-width: 0.1px;
      }
    </style>
    <radialGradient id="Gradiente_sem_nome_35" data-name="Gradiente sem nome 35" cx="493.3" cy="246.58" r="355.29" gradientUnits="userSpaceOnUse">
      <stop offset="0" stop-color="#1ca2ce"/>
      <stop offset="0.25" stop-color="#0784be"/>
      <stop offset="0.44" stop-color="#0781bd"/>
      <stop offset="0.57" stop-color="#0978b9" stop-opacity="0.98"/>
      <stop offset="0.68" stop-color="#0b69b2" stop-opacity="0.96"/>
      <stop offset="0.78" stop-color="#0d53a8" stop-opacity="0.92"/>
      <stop offset="0.88" stop-color="#11379c" stop-opacity="0.87"/>
      <stop offset="0.97" stop-color="#16158d" stop-opacity="0.82"/>
      <stop offset="1" stop-color="#170a88" stop-opacity="0.8"/>
    </radialGradient>
    <linearGradient id="Gradiente_sem_nome_38" data-name="Gradiente sem nome 38" x1="-56.36" y1="430.89" x2="155.15" y2="487.56" gradientTransform="matrix(1, 0, 0, -1, 64.02, 648.09)" gradientUnits="userSpaceOnUse">
      <stop offset="0" stop-color="#ffe100"/>
      <stop offset="1" stop-color="#d20000"/>
    </linearGradient>
    <linearGradient id="Gradiente_sem_nome_38-2" x1="99.96" y1="429.04" x2="277.94" y2="476.73" xlink:href="#Gradiente_sem_nome_38"/>
    <linearGradient id="Gradiente_sem_nome_38-3" x1="265.46" y1="428.7" x2="448.67" y2="477.79" xlink:href="#Gradiente_sem_nome_38"/>
    <linearGradient id="Gradiente_sem_nome_38-4" x1="442.82" y1="437.5" x2="622.03" y2="485.51" xlink:href="#Gradiente_sem_nome_38"/>
    <linearGradient id="Gradiente_sem_nome_38-5" x1="621.43" y1="443.48" x2="750.51" y2="478.06" xlink:href="#Gradiente_sem_nome_38"/>
    <linearGradient id="Gradiente_sem_nome_38-6" x1="710.59" y1="431.27" x2="885.49" y2="478.14" xlink:href="#Gradiente_sem_nome_38"/>
    <linearGradient id="Gradiente_sem_nome_7" data-name="Gradiente sem nome 7" x1="680.53" y1="365.86" x2="680.53" y2="180.73" gradientTransform="matrix(1, 0, 0, -1, 64.02, 648.09)" gradientUnits="userSpaceOnUse">
      <stop offset="0" stop-color="#170a88"/>
      <stop offset="0.5" stop-color="#0784be"/>
      <stop offset="1" stop-color="#1ca2ce"/>
    </linearGradient>
  </defs>
  <g id="g3034">
    <g id="g3014">
      <path id="path2961" class="cls-1" d="M845.32,8.27C749.9,10.2,640.91,48.59,551.53,79.16l16.67,18c45.72-19.38,97.4-33.14,146.2-41.74C757,48,804.08,37,844.21,56.67c17.65,8.67,18.89,20.69,18.89,28.17l57.07,6C925.89,87.73,930.64,76,933,70.37c9.41-22.54-7.69-48.86-30.91-54.92a208.09,208.09,0,0,0-56.77-7.18ZM590.59,126.74c3.25-1.58,8-4.36,11-3.09l6.45-24.46c-9.12.59-21.54,4.58-27.24,9l9.75,18.52Zm110.59,68.77c-9.64,5.67-15.85,9.77-24.56,18.35l-3,26.41c4.51-2.29,22.17-11.89,24.92-17.06ZM465.35,228.6l17.75,14.29c6.74-3.27,15-7,21-11.7l-3.79-19.75C491.32,216.69,477,221.31,465.35,228.6Zm204.16,32.59-1.89,22.7c6.93-1.78,26.51-12.46,30.1-18l-2.59-20.37C688,248.5,670.08,260.73,669.51,261.19ZM251.86,321.9c4.82-4.51,23.94-26.66,26.9-29.57L267.1,271.25,251.86,321.9Zm143.52,4.26c-5.21,2.75-43.35-29.65-43.35-29.65l-59.74,26.2c-11.66,28,24.16,38.46,52,38.81,31.93.4,114.88-21.51,133.78-30.12l-30.87-16.61c-16.23,3.91-35.48,7.86-51.8,11.37ZM53.69,418.08c-6.5,15.64-.83,34.26,11.77,45.29,21,18.39,50.24,20.63,76.89,21.39,72.84,2.07,144.2-16.07,213.73-35.73,37.41-10.58,74.29-22.17,110.29-37.66,6.17-2.65,3.74-18.56-5.06-19.5-14.24-.33-28.87,8.61-42.27,12.62-73.78,22.09-149.58,44.92-227.3,41.47-21.89-1-46.7-5.67-61.3-23.77-4.64-5.75-8-16.25-7.36-23.43,1.92-22.2,38.23-66.76,50.73-76.86l-38.75-8.6C101.26,346.35,72.1,373.78,53.69,418.08ZM430.37,364.9c-70,15.31-168.16,32.28-191.66-2.13-4.24-5.76,2-21.06,7.13-29.21l-46.24-7.82c-20.46,19.48-40.32,52.24-27.25,74.59,4,6.76,15.3,13.29,22.34,15.45,48.25,14.83,99.38,4.1,147.52-5.77,47.7-9.78,101-26.15,146.47-43.51l-6.37-21.28c-17,3.48-35.88,13.12-51.94,19.68ZM786.64,75.25c17.83.62,28.3,14.14,40.24,25.07l-28.29,7.29Z"/>
      <path id="path3762" class="cls-2" d="M198.94,54.4c-12.31,3.19-11.87,19.65-18.77,28.83-7.72,10.28-16,20.46-19.13,33.45-1.72,7.18-1.68,16.46-6.85,21.54-7.77,7.63-3.33,18.78-1.39,27.48.83,3.68.48,7.52.11,11.26-5.15-10.9-8.41-24.41-2.07-35.79,7.07-12.69,7.42-31.11-4.38-41.58-9.32-8.27-22.52-12.4-34.55-11.84-5.29.24-8.64,9.48-12.75,7.87s-6.5-5.31-10.08-7.68-9.91,7-12.59,11.65C68.16,114,53,128.32,56.12,146.46c3,17.13-4,33.44-5.95,50.24-1.61,13.71-2.2,28.89-6,42.18-.83,2.91-3.66,3.21-3.87,7.54-.26,5.53.67,11.23-4,15.78-5.9,5.79,1.8,14.42-1.3,22.16-7.53,18.8-3,41.59,8.36,58.35,5.12,7.57,6.84,8.66,13.79,4.85,8.71-6.31,30.1-6.45,37.12-15.42,2.51-3.21-1.26-7.93.66-10.06,4.51-5,17.93-11.26,12.75-19.75-1.87-3.08-3.45-5.55-1.93-9.08,1.91-4.41,1.24-15.8,3.83-14,8,5.63,12,27.43,22.45,38.77,6,6.73,13.15,15.8,22.16,16.33,8.64.51,15.81-7.82,24.7-8.23,3.71-.18,9.34-4.65,11.78-1.86,5.52,6.32,11.83,11.84,17.63,17.89s14.49,3.86,21.58.69c8.89-4,24.32-3.34,26.7-15.05,1.94-9.57,7.21-17.52,8.93-27.27,1.9-10.8,2.17-24.57,11.09-31.73,2.78-2.23,10.77-5.9,11.3-3.21,2.92,15-4.88,34.67,2.85,50.84,5.46,11.42,7.24,26.28,17.15,34.19,6.95,5.53,14.35-4.71,17.83-10.9,5.8-10.33,14.7-18.87,22.59-28,1.28-1.49,2.76-4.89,3.75-4.54,1.31.46,2.34,4.65,3.73,6.88,6.85,11,17.08,20.88,29.77,23.22,16.8,3.11,29.7-13.13,33.6-28.17,1-3.78-.26-10.75,5.47-5.37,11.4,10.71,25,19.74,38.92,27.27,8.07,4.37,17.37,6.09,25.58,10.13,11.35,5.6,23,13.67,36.8,11.18,41.35-7.45,83.49-12.06,125-18.72,11.73-5.52,18.54-18,24-29.19,3.34-6.81,2.58-14.61-1.82-21.1-2.88-4.25,1.29-9.9.65-15.13-.84-7,2.19-13.48,3.69-20.08.61-2.69-.86-6.44-.52-9.18,1.13-9.32,5-17.51,6.16-26.93,1.41-11.14,6.79-21.13,9.3-32,.62-2.71,4.4.93,6.81,1.27,5.48.79,10.94-3.19,15.56-2.33,5.11.94,1.89,9.37,3.72,14,2.78,6.94-2.87,12.68-3.31,19.74-.86,13.8-.43,27.8-2.3,41.51-.51,3.73-1.8,7.35-2.11,11.12-.84,9.93.5,20.15,1.21,30.18s.86,19.94,2.71,29.69l18,14.55,111.41,1.13c14.19,4.18,29.84.25,43-5.5,19.14-8.34,33.24-24,49.12-36.95,7-5.75,7.83-15.8,15-21.54,20.59-16.37,27.87-44.56,28.72-70.19.94-28.32-5.4-57.66-23.73-79.81-7.16-8.66-17.27-18.2-23.57-23.91s-10.79-1.78-15.64-3c-4.15-1.06-6.43-2.88-10.74-3.23a35.32,35.32,0,0,0-17.66,3.63c-4.62,2.49-9.61,3.25-14.82.21-14.57-8.49-34.29,1.22-43.51,14.29-2.9,4.1-3,1.55-4.3-1.82-2.94-7.8-5.28-15.64-12.73-18.67-6.53-2.66-16.22-7.5-22.63-10-5-2-12.75,3.72-20.1,2.2-11-2.27-21.86,2.32-33,3.15-12.54.93-25.6,1.32-37,6.82-2,1-4,3-6.39-.48-6-8.63-12-13.32-17.61-20.38-4.57-5.72-23,8-33,11.55-16.22,5.73-17.93,27.12-22.49,42-10,32.53-15,78.83-26.16,98.69-1.85,3.27-2.7-6.1-2-14.45.29-3.36,1.35-6.43,1.68-8.69,1.08-7.58-2.14-14.95.61-22.78a82.86,82.86,0,0,0-1.12-58.09c-2.28-5.61-7-10.11-8.93-15.31C581.4,98,568,97.84,559.5,93.9c-14.26-6.63-16-5.11-21.3,2.7-5,7.35-8.76,15.37-12.61,23.22C515.33,99,494,87.05,472.81,79.38c-22.11-8-46.6-17.22-69.89-10.8-23.44,6.46-42.05,28.49-45,53-.43,3.52-.56,4.87-1.79.62a16.61,16.61,0,0,0-4.86-7.56c-2.31-2.16-7.61-3.4-7.79-5.27-.2-2.12,6.21-6.67,6.84-10.38.82-4.83-2.55-9.1-7.24-11.88C332,80.44,323.7,64.36,309.37,66.39,298,68,289.17,77,279.3,82.57c-7.69,4.33-11.23,13.74-19.72,17.75-9.63,4.55-15.17,15.53-19.17,25.18-2.11,5.11,4.34,8.36,1.94,13.94-6.59,15.32-10.2,32-16.44,47.65,2.13-23.89,4.7-47.93,7.14-71.65,2.08-20.09-15.22-35.17-23.36-52.44-1.88-4-6.16-9.79-10.75-8.6ZM807,168.58c-2,7.62-4.26,15.06-7.84,22.16.95-7.08,1.88-14.06,2.52-21.18A42.15,42.15,0,0,0,807,168.58Zm88.59,15c7,1,2.66,12,4.34,17.5,2,6.58,2.52,13.74-1.49,20.22-7,11.27-7.4,27.84-20.1,35.22-2.75,1.61-8.13,7.75-9.06,5.64-3-6.92,1.24-17,1.2-25.66,0-13.18,6.22-25.74,6.24-39.18,0-8.54,11.25-14.86,18.87-13.74ZM516.55,193c1,14.34.38,28.76-.66,43,.57,13.42,3.25,26.63,6.82,39.55-19.64-15.93-41.51-31-60.06-47,13.78-6.46,25.18-16.84,38.66-23.89a79.76,79.76,0,0,0,15.2-12.41l0,.77Zm272.09,55.54c2.42-1.86,3.41,15.09,2.29,22.88-1,6.79.1,13.87,2.08,20.45-3.82-1.59-8.75-1.51-7.76-7.65C787.11,272.58,785.15,251.2,788.64,248.54Z"/>
      <path id="path3754" class="cls-2" d="M180,32.47c-12.31,3.18-11.87,19.65-18.77,28.82-7.72,10.28-16,20.47-19.13,33.46-1.72,7.17-1.68,16.46-6.85,21.54-7.77,7.63-3.34,18.78-1.39,27.47.83,3.68.48,7.52.11,11.27-5.15-10.9-8.42-24.41-2.07-35.79,7.07-12.69,7.42-31.12-4.38-41.58C118.2,69.38,105,65.25,93,65.81c-5.29.25-8.64,9.49-12.75,7.87s-6.5-5.3-10.08-7.67-9.91,7-12.59,11.65c-8.33,14.42-23.49,28.72-20.37,46.86,3,17.13-4,33.44-5.95,50.24-1.61,13.71-2.2,28.9-6,42.18-.83,2.91-3.66,3.21-3.87,7.55-.26,5.52.67,11.23-4,15.78-5.89,5.79,1.81,14.41-1.29,22.15-7.53,18.81-3,41.59,8.36,58.35,5.12,7.57,6.84,8.67,13.79,4.85,8.71-6.3,30.1-6.45,37.12-15.42,2.51-3.2-1.26-7.92.66-10.06,4.51-5,17.92-11.26,12.75-19.75-1.87-3.08-3.45-5.54-1.93-9.07,1.91-4.42,1.24-15.81,3.83-14,8,5.63,12,27.43,22.45,38.78,6,6.72,13.15,15.79,22.15,16.33,8.65.51,15.82-7.83,24.71-8.24,3.71-.17,9.34-4.65,11.77-1.86,5.52,6.32,11.84,11.84,17.64,17.89s14.49,3.86,21.58.7c8.89-4,24.32-3.34,26.7-15.06,1.94-9.57,7.21-17.52,8.93-27.27,1.9-10.8,2.17-24.57,11.09-31.73,2.78-2.23,10.77-5.9,11.3-3.2,2.92,15-4.88,34.67,2.85,50.83,5.46,11.42,7.24,26.29,17.15,34.19,6.95,5.53,14.35-4.71,17.82-10.9,5.81-10.33,14.71-18.86,22.6-28,1.28-1.5,2.76-4.9,3.75-4.55,1.31.46,2.34,4.66,3.73,6.89,6.85,11,17.08,20.87,29.77,23.21,16.8,3.11,29.7-13.12,33.6-28.17,1-3.77-.26-10.75,5.47-5.37,11.4,10.71,25,19.75,38.92,27.27,8.07,4.38,17.37,6.09,25.58,10.14,11.35,5.59,23,13.66,36.8,11.17,41.35-7.45,83.49-12,125-18.72,11.73-5.52,18.54-18,24-29.19,3.34-6.81,2.57-14.61-1.82-21.1-2.88-4.24,1.29-9.9.65-15.12-.84-7,2.19-13.49,3.68-20.08.62-2.7-.85-6.45-.52-9.19,1.14-9.32,5-17.51,6.17-26.93,1.41-11.14,6.79-21.13,9.3-32,.62-2.7,4.4.93,6.81,1.28,5.48.78,10.94-3.19,15.56-2.34,5.11.95,1.89,9.37,3.72,14,2.78,7-2.87,12.68-3.31,19.75-.86,13.8-.43,27.8-2.3,41.5-.51,3.74-1.8,7.36-2.12,11.13-.84,9.92.51,20.15,1.22,30.18s.86,19.93,2.71,29.68l18,14.56,111.41,1.13c14.19,4.18,29.84.24,43-5.51,19.14-8.34,33.23-24,49.12-36.95,7.05-5.75,7.83-15.8,15.05-21.54,20.59-16.37,27.87-44.56,28.72-70.19.94-28.32-5.4-57.66-23.73-79.81-7.17-8.65-17.27-18.19-23.57-23.91s-10.79-1.78-15.64-3c-4.15-1-6.43-2.87-10.74-3.23a35.32,35.32,0,0,0-17.66,3.63c-4.62,2.5-9.61,3.25-14.82.22-14.57-8.5-34.29,1.21-43.51,14.28-2.9,4.11-3,1.55-4.3-1.82-2.94-7.8-5.28-15.64-12.73-18.67-6.53-2.65-16.22-7.49-22.64-10-5-2-12.74,3.72-20.1,2.2-11-2.27-21.85,2.33-33,3.16-12.53.92-25.59,1.31-37,6.81-2,1-4,3-6.39-.47-6-8.64-12-13.32-17.61-20.38-4.57-5.73-23,8-33,11.55-16.22,5.73-17.93,27.12-22.49,42-10,32.54-14.95,78.83-26.16,98.69-1.85,3.27-2.7-6.09-2-14.44.29-3.36,1.35-6.44,1.68-8.7,1.08-7.58-2.14-14.94.61-22.78a82.86,82.86,0,0,0-1.12-58.09c-2.28-5.6-7-10.1-8.93-15.31C562.46,76.11,549,75.9,540.56,72c-14.26-6.62-16-5.11-21.31,2.71C514.31,82,510.5,90,506.65,97.88,496.38,77,475,65.11,453.87,57.44c-22.11-8-46.6-17.22-69.89-10.8-23.44,6.46-42.05,28.49-45,53-.42,3.53-.55,4.88-1.78.62a16.67,16.67,0,0,0-4.86-7.56c-2.31-2.15-7.61-3.4-7.79-5.26-.2-2.13,6.21-6.68,6.84-10.39.82-4.82-2.55-9.09-7.24-11.88C313,58.5,304.76,42.43,290.43,44.46c-11.4,1.61-20.2,10.62-30.07,16.18-7.69,4.33-11.23,13.73-19.72,17.74-9.63,4.56-15.17,15.54-19.17,25.19-2.11,5.1,4.34,8.35,1.94,13.93-6.6,15.33-10.2,32.05-16.44,47.66,2.12-23.9,4.7-47.94,7.14-71.65,2.07-20.1-15.22-35.18-23.36-52.44-1.88-4-6.16-9.79-10.75-8.6ZM788.1,146.64c-2,7.63-4.26,15.07-7.84,22.16,1-7.07,1.88-14.06,2.52-21.17A42.19,42.19,0,0,0,788.1,146.64Zm88.59,15c7,1,2.66,12,4.34,17.49,2,6.58,2.52,13.74-1.49,20.23-7,11.26-7.4,27.84-20.1,35.22-2.76,1.6-8.13,7.74-9.06,5.63-3-6.91,1.24-16.95,1.2-25.66-.05-13.17,6.22-25.74,6.24-39.17,0-8.55,11.25-14.86,18.87-13.74Zm-379.08,9.4c1,14.34.38,28.77-.66,43,.57,13.41,3.25,26.62,6.82,39.54-19.64-15.93-41.51-31-60.06-47,13.78-6.45,25.18-16.84,38.65-23.89a79.14,79.14,0,0,0,15.21-12.41l0,.77ZM769.7,226.6c2.42-1.86,3.41,15.1,2.29,22.89-1,6.79.1,13.86,2.08,20.44-3.82-1.58-8.75-1.5-7.76-7.65,1.86-11.64-.1-33,3.39-35.68Z"/>
      <path id="path3699" class="cls-3" d="M180.62,39.5c-3.2.13-10.91,25.38-18,32.11-13,12.28-14.83,31.12-19.57,47.34-.66,2.24-4.72,3.14-5.47,5.32-1,2.94,1,9.83,2.41,14.65,3.78,13.06-1.79,27-1.17,40.34.22,4.67-.67,7-3-.95-4.69-16.17-13.28-26.88-14.9-43.44-1.26-12.89,10.19-24.39,8.82-37.46a24.74,24.74,0,0,0-9.59-17c-6.07-4.41-14.65-5.54-22.77-8-4.13-1.27-7.12,5.67-13.67,8.2-3.16,1.22-5.77.42-9.37-2.26C67.71,73.42,66,77,60,86.4c-7.58,11.76-19.33,24.15-15.64,39.4,3,12.18-2.6,23.46-4,35.46-2.42,20.07-6.42,37.74-9.08,58.93-.22,1.77-2.66,3.86-3,5.39-1,4.38.85,9.69-1.25,13.48-1.36,2.45-4.51,4.53-4.74,7.13-.55,6.26,3.8,6.55,1.66,12.7-1.79,5.16-4.55,15.85-4.55,21.72,0,12.14,4.57,26.42,10.25,35.29,2.38,3.73,4.06,4.18,6.84,3.14,4.32-1.61,16.69-6.56,20.86-7.67,2.23-.6,9.85-2.45,11.59-3.92,2.86-2.41-1.57-5.57,0-8.87s8.51-7.89,11.66-10.53c4.58-3.84,1.67-4.93-.72-7.94-2.8-3.53.33-8.12.72-11.89,1.2-11.66,6.51-22.33,7.57-25.83,2.21-7.32,4.28,8.44,10.18,14.57,5.24,5.45,9,19,14.8,27.54A82.49,82.49,0,0,0,130,302.4c4.18,3.39,5.11,4.24,8.84,1.81,5.19-3.38,26.31-8.62,30.89-9.89,4.22-1.18,4.76-4.36,6.29-9.14,1.27-4,.85,1.65.68,5.42-.13,3.1-1.82,5.44.9,8,5,4.62,12.93,13,17.46,17,4.87,4.31,9.49.08,15.25-1.76,3.87-1.24,13.57-3,17.1-5,5.05-2.86,3.18-6.1,5.09-11.9,1.25-3.81,3.6-6.22,4.73-10,4-13.44,4.94-28.63,11.16-40.8,3.49-6.82,14.81-8.63,22.19-10.62,2.78-.76,4.63.32,4.92,2.56,1.61,12.31.15,18.64-1.16,29.73-1.93,16.27,8.83,35.79,15,50.17,3.29,7.69,6.07,5.51,9.31-.18,6.23-10.95,22.89-29.48,30.6-38.51,2.67-3.13,3.1-4,2.8-7.69a67.48,67.48,0,0,1,.2-13.41c.51-4.23,2-8.27,3.19-12.43,1.9-6.61-.77-16.42,1.67-17.13s7,9.08,4,16.37c-6,14.83-7.24,34.09,4.45,47.19,7.34,8.23,17.86,19.59,29.81,15.56,14-4.71,19.42-21.63,20.33-34.84.69-10,5.41-3.21,9.7-.11,20.19,14.62,39,32.69,63.88,38.56,12.07,2.85,14.63,14.67,34.22,12.79l127.3-19c10.27-8.89,17.09-18.19,21.18-32.58.95-3.36-5-6.48-5.07-11.3-.1-8.32,2.06-17.31,1.42-25.58-.28-3.64,3-7,3.65-10.64.4-2.41-1-5.19-.44-7.51,2.32-9.38,4.66-18.75,5.76-28.5,1.65-14.78,10.36-26.89,10.93-42,.24-6.46,4.91.33,7.4,1.82,2.33,1.41,3.58,3.51,5.79,3.79,6.49.83,13.71-4,17.2-2.37,2.32,1.07,6,5.41,6.78,8.42.57,2.11-.69,3.71.07,5.83,1.34,3.68,1.58,8.16,1.75,12.25.09,2.08-2.25,5.31-2.69,7.62-3.07,15.84-2,30.24-3,46.32-.35,5.37-2.88,8.57-2.88,15.19,0,19.22,0,39.55,5.07,59.77l14.43,16.29,62.14-41c-5-4.8-21-7.15-21.14-10.6-.59-12.2,1.52-24,2.62-36.48,2.6-29.22,12.85-57.91,13.82-87.58.09-2.9-.13-5.7,3.93-5.54,8.33.33,16.4-4.22,21.25-11.11-3.48,9.71-6.35,19.43-8.89,29.55-4.05,16.12-19.44,29.26-21.5,46.14-1.63,13.32,12,20.23,9.51,36.95-2.14,14.38-1.36,33.17,12.17,42.24l35.46,28.28c12.15,2.13,26.79-.51,37.68-5.61,18.64-7.95,31.14-23.51,47.57-35.73,4.26-3,4.73-8.89,7.46-13.39s7.88-7.88,11.7-11.89c22.21-23.29,24.82-58.81,20.59-89.68A95.18,95.18,0,0,0,918.79,96c-3.65-3-7.3-9.1-11.52-11-3.17-1.39-5,1-8.57.65-3.27-.33-7.44-3.32-10.55-3.54s-7.19-.61-9.35.28c-8.79,3.6-12.16,5.37-21.17,6.24-2.77.27-4.74-5-8.87-5.1-6.06-.22-13.58-.5-16.25,1.24-8,5.21-12.19,7.52-17.85,15.29-3.67,5.06-4.88,11.56-9.4,16.23.43-14.14-5-26.76-14.1-37.21-5.57-5.13-13.21-7-20.85-8.63-3.36-.73-6.66,2.58-10,2.26-4-.38-7.88-1.53-11.84-1.57s-7.76,1.29-11.48,1.64c-16.19,1.53-32.18,3.38-48.14,6-6.16,1-9.63,10.5-13.56,16.84.27-7.54-.44-9.8-4-16-3-5.15-9.5-12-14-16-6.47-5.78-11.3,1.6-23.51,5.8-11.69,4-13.38,5.61-18.18,18.77-11.47,31.44-16.52,65.91-26,98-4.44,15-8.9,31.27-14.73,38.92-4.48,5.89-4.52-9.22-5.35-16.69-.72-6.46-3-10.41-3.1-16.73-.07-3.1,3.5-9.84,2.51-12.72-3-8.76-.83-15.07,1.17-22.78,4.22-16.26,6.44-34.29-1-50.18-2.47-5.28-2.39-10.18-7.73-13.26-3.77-2.18,1.18-5.77-4.88-8.2-9.27-3.73-13.71-5.28-22.93-9.22s-15,16.06-19.82,23.68c-5.59,8.93-4.69,19.7-6.34,29.74-.74-22.55-13.29-44.6-33.75-54.88-16.75-8.43-34-15.62-52.62-19.35-14.65-2.94-31.07-5.92-44.5,2.95-9.67,6.38-19.05,13.14-24.38,23.72-12,23.76-6.17,51.08-5.83,76.39.1,7.63,2.08,16.27-.88,23.32-1.37,3.26-3.29,3.68-4.66-.25-2.4-6.87-.22-14.18-2.33-21.18a20.32,20.32,0,0,1-.73-6.45c.09-5.51,2-11,1.27-16.43-1.44-11.25-5.28-22.08-7.94-33-1.59-6.5-5.58-7.44-11.7-11.45-5.52-3.61,1.28-10.47,3.1-15.23,1.95-5.15-3.29-6.74-5.73-8.64-5.46-4.25-10.08-9.62-15.78-13.41-7.42-4.93-7.63-6.78-23.1,3.86-8.33,5.74-15,5.51-22.34,18.19-3.07,5.29-11.92,5.74-15.71,11.08-4.25,4.44-7,10-11,16-1.95,2.92,4.09,5.58,3.43,7.95a628,628,0,0,1-23.33,67.38c-1.95,4.75-8.52,11.6-11.66,14.25,2.76-29.19,5.55-58.19,7.32-87.32.33-5.37,2.54-7.82,2.77-13.16C207.83,79.7,195,63.37,187,49.27c-.78-1.38-4.82-9.84-6.38-9.77ZM411.2,117.34c4.31,0,14.73,4.27,14.43,8.17-.41,5.34-14.42,11.24-18.69,12.75-1.54.54,2.81-8.33,3.38-12.35.41-2.82-1.67-8.25.11-8.53a4.6,4.6,0,0,1,.77,0ZM506,142c-.58,8.17-1.49,16.49-1.51,24.67,0,9,.87,17.93.89,27,0,5.66-1.68,11.76-1.53,17.42.5,19,5.49,37.69,11.15,55.87,1,3.14,3.39,7.62-3,2.4-28.17-23.17-60.72-47-78.32-61.11-6.89-5.55,11.1-7.5,21.11-16.11,11.66-10,20-11.27,30.22-19.75S503.29,152.94,506,142Zm369.5,12.68c10.33-.74,12.9,9.53,12,18.82-.56,6,4.27,14.53,2.56,20.14-1.55,5.11-6,10.47-7.14,15.71C880.21,222.15,873,235,861,242.05c-4,2.32-9.31,9.17-13.19,6.31-9.38-6.93-2-21.52-3-31.85-.9-9.5,3.29-18.31,5.47-27.44,1.22-5.12-.31-10.62.76-15.68,2.26-10.63,14.34-18,24.49-18.73Z"/>
      <path id="path2932" class="cls-4" d="M28.43,273.67A91.69,91.69,0,0,0,32,254.12c.24-2.77-1-5.62-.64-8.26.31-2.06,3.7-4.12,4-6.34.45-3.56-1.31-7.36-.67-10.92.68-3.79,2.84-.88,4.34-7.72,2.67-12.17,4.65-27.89,5.9-40.42.95-9.44,2.75-18.89,4-28.18,1.14-8.69,5.06-17.6,2.59-26.06-2-6.8-.15-13.54,2.5-19.89,2.05-4.94,7.44-8.78,10.39-13.82,2.29-3.91,3.68-6.78,6.18-6.89,1.91-.09,3.56,2.23,6.07,3.28,4.07,1.71,9.26-1.08,12.69-2.54,4.1-1.74,6.42-5.29,9.93-5.78,3.67-.51,7.58,1.5,11.81,3.24,5.65,2.32,9.9,8.62,11.21,12.33s.75,5.31.24,6.61c-3.43,8.74-4.39,16-7.7,25.1-4.09,11.28,3.88,22.33,7.15,32.75,1.74,5.51,3.93,10.51,5.83,15.71,2.06,5.63,3.93,11.23,5.5,17.15s2.78,13.39,5.58,18.62c2,3.69,3.45-5.35,4.43-11.1.39-2.28,1.89-4.34,2.05-5.45,1.23-8.89.29-21.11,1.1-30.7.43-5.09,1.5-7.89,1.7-12.55.5-11.45-3.56-17.59-2.28-24.76.32-1.84,4-3.21,4.38-5.82a111.43,111.43,0,0,1,7.91-30.23c6-14.48,11-14.27,14.22-21,1.65-3.55,3.3-6.08,5.12-9.52,1.69-3.17,2.34-5.63,4.25-4.78,1.72.76,8.43,12.28,11.4,16.63a40.5,40.5,0,0,1,7.24,20.71c.14,3.3-1.3,6.4-1.7,9.88-2.5,21.61-3.57,43.63-4.8,65.5-1.42,25-4.83,50.41-11.91,74.46-1.89,6.41-2.61,13.51-4.76,20.28-1.09,3.45-2.92,8.24-4.45,12.16-1.9,4.86-3.05,11.83-8.89,13.44-6.43,1.77-13.36,2.25-18.93,5.5-9.86,5.75-15.52-2.77-21.77-8.78-9.42-9.07-11.93-22.28-19.08-32.67a55.39,55.39,0,0,1-7.26-14.38c-1.6-4.88-1.28-10.6-5.15-14-2-1.72-2.94-13.15-5.5-7.91-3.86,7.9-4.2,17.3-7.09,26.78-2.6,8.53-4.57,18.18-6.6,26.73-.71,3-2.79,5.46-3.09,8.28-.37,3.57,4.07,3.82,2.81,6-2.24,3.89-9.7,8.67-11.13,13.09-.72,2.19.61,3.59-2.8,5.4-5,2.65-13.12,4.57-19.26,6.22-1.3.35-2.55.71-3.52-.35-8.77-9.68-8.43-23.18-7-35.44Z"/>
      <path id="path2934" class="cls-5" d="M288.3,297.3a72.86,72.86,0,0,1-5.5-12.67c-3.22-9.15-1.15-18.57-.58-28.06.48-8-.51-15,0-23,.29-4.8.21-8.65-6.33-6.64-10.42,3.2-21.94,5.17-30.85,10.92-4.87,3.15-5.3,9.9-6.57,15.94-2.29,10.9-6.08,21.39-8.81,32.09-1.15,4.49-4.33,8.07-5.57,12.65-1.41,5.21-7.15,6.47-13.73,8.07-5.26,1.28-9,2.09-12.82-.09-4.59-2.62-10.81-6.11-12.83-10.64-3.75-8.41,3.23-19.76,5.4-29.24s9.08-20.87,2.39-30.11c-5.24-7.24-2.14-18.46,2.59-25.1,4.83-6.79,9-13.26,14.66-19.43,3.44-3.72,3.91-8.82,6.36-13,3.74-6.38,4.87-14.65,7.85-22,6.14-15.21,11.32-30.75,15.83-45.52.85-2.76-2.58-4.85-2-7.17.94-3.92,5.05-8.46,7.46-11.64,4.39-5.78,12.43-4.92,15.88-11.31,1.91-3.52,3.86-6.79,7.72-8.64C276.35,69,283,62.4,290.44,59.73c6.59-2.36,14.17,9.15,20.59,13,8.88,5.33-5.38,17.35-.11,23.1,2.57,2.8,7.1,3.28,10.11,5.75,4.91,4,5.15,13.18,6.75,19.7,1.9,7.72,6.37,16,3.72,23.95-3.1,9.39,1.87,18.07,1,27.54a22,22,0,0,0,4.57,15.72c5.18,6.76-3.48,12.17-5.75,18.15-3,7.81-.17,17.31-1.34,25.76-1,7.37-1.59,15.22-4,22s1.72,16.09-3.13,21.64-9,12.73-14.62,18c-4.09,3.82-12,18.66-14.2,14.52-1.81-3.39-3.77-7.56-5.75-11.3ZM271,182c3.65-2.44,11.47,3.58,11.25-3.69-.24-8,.59-14.63-1-20.72-2-7.51-10.52,12.83-12,17.78-.7,2.29-4,10.49,1.8,6.63Z"/>
      <path id="path2938" class="cls-6" d="M482.61,309.21c-6.6-4.33-7.76-3.57-16.05-6a69.16,69.16,0,0,1-23.48-11.51c-4-3.07-8.12-5.75-12-8.29-7.07-4.6-14.1-11.41-21.61-16.2-3.1-2-10.26-7.85-14.06-10.14-3.65-2.19-4.38-.25-5.42,7.46C388.42,276,386,289,378.08,297.88c-8.93,10-21.32-3.39-27.86-11-8-9.21-7-20.4-4.74-31.41,1.45-7,5.17-14.32,4.39-21.54-.41-3.8-3.15-7.73-5.91-11.27-5.29-6.77-11.17-18.69-3.56-26.89,4.17-4.48,10.31-8.85,12.53-13.84,1.91-4.32.76-8.54.56-14.26-.37-10.13-.63-20.06-1.32-30.14-.84-12.18-1.63-24.39.15-36.53,1.14-7.79,5.47-15.21,9-21.44,2.38-4.17,4.69-8.3,9.64-10.69,8.4-4,15.58-11.23,24.73-11.49,8.83-.25,17.55,2.86,26,4.51,11,2.17,22.49,4.49,31.73,10,8.83,5.21,18.67,8.27,26.81,14.67A48.76,48.76,0,0,1,496.34,110c3.65,11.19,6.36,23.53,1.3,34.9-3.23,7.26-6.95,14.07-12.56,19C480,168.3,475,173,469.23,175.73a152.73,152.73,0,0,0-21.31,12.45c-9.17,6.35-25.62,7.83-30.37,13.84-3.11,3.92,10.58,11.67,16.41,16,13.09,9.67,26.89,19.4,39.43,30,9.5,8.06,19.92,14.53,29.58,22.48,6.22,5.11,11.66,10.23,18.11,14.63A315.69,315.69,0,0,1,547,305.62l-44.38,12.13c-11.66-2.57-16-5.89-20-8.54ZM425.67,134.65c7.16-4.51,12.72-13.2,1.17-17.67-7.76-3-23.83-12-25.84-8.55-1,1.75,1.9,5.2,2.28,7.94.72,5.12-1.06,10.7-2.11,15.56-.95,4.4-7.44,20.53-.08,17.23,8.68-3.88,16.45-9.4,24.58-14.51Z"/>
      <path id="path2940" class="cls-7" d="M628.43,297.8l-86.24-9c-4.93.48-13.61-8.91-16-13.39s-4.55-8.28-5.5-13.85c-1.15-6.74-4.53-13.22-5.16-20.27-1.2-13.35-4.82-26.56-3.41-40.33,2.06-20.15-2.17-40.72,1-60.91,1.49-9.49,2.45-19,3.25-28.42.49-5.8,4.3-9.86,6.69-14.6,2.3-4.59,4.66-13.22,9.75-13,4.84.25,10.41,3.73,15.4,5.85,3.2,1.37,4.09,5.2,5.83,7.86,1.16,1.78,4.49,1,5.46,3.15,1.89,4.29,3.49,10.1,5.58,15,3.6,8.53,1.18,17.88.42,26.71-.68,8-3.35,15.83-4.48,23.82-.67,4.77,1,8.94.77,13.1-.15,3.09-2,2.36-2,9.69a91.39,91.39,0,0,0,1.71,16c.78,4.5.67,9.12,1.21,13.65.77,6.56,2.15,14.55,5.4,19.7,4.5,7.16,12.31-8.48,15.82-13.56,4.93-7.13,6.66-16.89,9-25.07,2.05-7.31,3-14.88,5.5-22,2.34-6.75,3.49-14.12,5.75-20.94,2.35-7.12,3.54-14.62,4.9-22.09,1.69-9.2,4.46-18.45,7.21-27.62,2.36-7.88,5.45-15.47,8.59-23.38a5.58,5.58,0,0,1,2.68-3,221.5,221.5,0,0,1,21.11-10.62c1.9-.88,3.29-.71,4.6.72,5.65,6.16,12.69,12.56,13.56,20.38,1.6,14.44-3.25,28.22-3.45,42.55-.18,13.27-4.13,26.26-8.25,38.76-1.29,3.9-3.48,7.26-4.28,11.26-.92,4.64-.73,9.8-1.26,14.52-.82,7.14-4.94,15.11-5.83,21.21-.19,1.3,1.06,2.94.78,4.22-.74,3.35-3.14,6.61-3.08,10.2.12,6.68.25,16.06-1.23,23.35-2.1,10.42,3.87,11.62,3.56,17.72-.21,4.19-3.49,9.62-6.41,12.81s-5.9,7.2-8.94,9.74Z"/>
      <path id="path2944" class="cls-8" d="M710.47,297.92c-1.81-8.82-2.05-18.07-3.38-27.08-2.09-14.15-.89-28.69,1.09-42.88,1.85-13.27.84-27,3.46-40,.9-4.5,2.82-9.23,2.58-13.8-.21-4-2.13-6.58-1.76-10.08.17-1.63,2-1.94,2.08-4,.12-3.28-6-7-3.52-9.74,2.18-2.39,5-3.93,5-7.85-.08-9.44-10-.21-15.27-.2s-10.92,2.91-16,2.88c-3.12,0-6.08-1.68-8.21-5.15-2.52-4.11-7.9-7.94-8.18-11.81-.13-1.71,2-3.72,3.79-6.51,3.09-4.91,2.59-10.9,5.58-16,2.09-3.56,4.33-5,6.93-10.87S694.37,84.69,702.71,84c12.31-1,24.75-3.48,37.19-4.43,2.63-.2,6-1.49,9.13-1.43,6.48.14,12.66,2.06,15.13,2.07,1.82,0,4.37-1.29,5.21-1.3,3,0,5.76,1.49,8.73,2C784.48,82,789,85,791.78,91c2.59,5.63,4.88,11,6.09,17.44,1.51,8,0,16.4-7,21.5-5.26,3.81-12.72,3.67-17.92,3.52-2.14-.06-2.9.63-3.29,3.42-1,7-1.62,15.62-2,22.53-.5,9-3.06,16.83-3.64,25.52s-4.55,16.49-5.33,25.16c-.69,7.75-3.06,15-4,22.49-1,8.09.39,16.53-1.39,24.46-1.54,6.9-2.88,14.25-1.43,19.68.45,1.66,5.4,1.16,5.07,3-.28,1.59-5.88,2.05-5.93,7.23-.06,6.57-6.77,12.43-9.75,14.78s-9.88,8.7-14.59,7.75c-6.53-1.33-4.71-2.14-13.8-7.86a5.78,5.78,0,0,1-2.36-3.66Z"/>
      <path id="path2946" class="cls-9" d="M791.89,275.25c-5.51-7.32-6.11-20.36-5.11-30a47.42,47.42,0,0,0-6.55-30.39c-5.56-9.25,1.52-20.86,6.83-29.34,3.67-5.87,5.23-12,8.86-17.51,3.28-5,3.53-11.71,5.5-17.57,2.11-6.27,5.57-11.95,8.06-18.39,3.16-8.18,5.74-16.75,9.87-24.56s13.2-14.43,22.14-16.42c8.07-1.8,11.35,10,17.43,6.09,5.16-3.34,12.06-3.49,18.08-5.5,5.74-1.91,12-4,16.82-.42,3.83,2.9,9.68.29,12.82,3.38,7,6.89,15.36,12.18,21.23,20.25A73.91,73.91,0,0,1,942,142c7.15,25.23,6.77,52.8-1.79,77.26C935.36,233.1,923.93,243.61,915,255c-3.76,4.76-4.2,10.09-11.35,13-7.67,3.17-9.34,14.85-18.16,14.17l-29.19,20.59c-9.93,1.46-20.14,6.11-30.11,2.33l-34.25-29.84Zm58.48-19c4.13-1,7-3.52,10.39-5.5,4.62-2.68,9.32-6.74,13.56-10.72a45.53,45.53,0,0,0,9.19-12.78c3-6,3.86-13.68,8.09-19.47,6-8.2,6.34-19.14,4.77-28.4s-1.59-20.59-9.93-27.45c-6.24-5.13-13.09-5.42-20-1.83-7.42,3.83-15.58,8.24-19.59,15.6-2.85,5.23-4.19,11.25-4.74,17.46-.74,8.43-5.68,16.11-4.73,24.56s0,16.48-1.14,24.87c-.87,6.6,1.24,12.93,4.1,18.33,1.68,3.19,6.45,6.21,10.06,5.33Z"/>
      <path id="path3673" d="M569.84,284.11c-11.79.54-19.23,15.63-12.68,25.36.55,3.19,2.37,5.89,4,8.64-6.5,1.29-13,7-19.64,4.81-8.13-6.63-23.88-5.07-26.49,6.45-2.23,6.46-.38,13.86,1.27,19.83-10.06-1.21-23.69,3.12-24.78,14.76-1.5,8.28,4.3,15.56,7.54,22.19-.8,7-9.17,5.14-12.9,9.62-11.62,9.65-9.83,28.12-.25,38.49a41,41,0,0,0,10.9,9.36c-4.88,10.21-15.87,20.58-12,32.8,4.29,10.74,20.91,13.85,27.84,4.05,2.43-1.49,5.55-8,6.45-2.41,7.28,10.94,22.8,11.74,34.47,9.19,20.08-4.86,37.41-18.32,49.09-35,9,16.94,22.25,35.35,42.64,38.3,5,.37,10.33-3.16,14.94-2.44,6.32,7.63,17.2,3.92,24.13-.66,10.23-5.68,17.75-14.7,24.82-23.87,9.85,8,24.36,15.68,36.52,7.58,5.53-3,10.12-7.43,15-11.4,7.24,10.34,20.19,20.54,33.53,16.07,10.22,12.43,29.67,13.08,43.88,7.51,8.06-2.23,13.28-9,19.35-14.25,1.76,12.34,9.78,24.82,22.85,27.11,11.57,3.91,25.12-.44,32.51-10,2.24-1.45,3.71-5.39,6.12-2,7.49,4,14.61,11.71,23.91,9.47s17.55-9.18,23.43-16.58c2.34-5.13,3.83-11.55,9.81-13.45,2.63-4.85,4.76-.37,7.18,2.59,9,11.38,23.4,22.86,38.92,18.59,16.61-5.1,20.74-26,15.67-40.86-3.15-10.17-12.69-16.39-19.06-24.34-3.63-3.31-9.1-6.5-12.5-8.78,18.51-.35,35.41-17.22,33.53-36.12.27-11.92-12.32-19.4-23-20,11.37-8.34,13.32-27,2.34-36.52-8.73-10-25.31-15.72-36.47-6.24-9,5.91-18.95,15.58-30.45,13.27-4.51-3.08-11.29-.09-14.21-5.61-9-7.71-15.71-19.11-27.88-21.9-8.26-2.46-17.06-1.68-25.44-1-10.11,2.41-15.2,15.71-8.52,23.91,3.06,4.22,6.87,9.7,3.2,14.72-6,15.91-14.65,30.84-20.51,46.69-4.65-11.94-23.44-11.08-28.32.33-.54-2,.82-9.7,1.17-13.9,2.11-19,6.16-39.09,1.74-58-4.44-6.16-12.29-8.8-16.61-15-7.07-5.63-17.93-5.39-24.86.29-14-.74-20.29,14.24-30.83,20.48-9.93,6.39-21.18,11.68-33,13.63-7.77-11.95-23.85-20.61-37.72-14-10.79,3.62-19.93,17.23-13,27.95,2.87,7.41,5.22,15.37,10.82,21,.63,7.19-2.45,14.27-2.34,21.57-2.74,20.42-6.77,41-16.17,59.3-14-3.79-26.65-15.21-34.81-24.89,14.4-1.26,27.59-16.94,21.36-31.3-.66-2.71-5.39-4.42-2.37-7.15,3.3-7.21,7.52-15.47,3.79-23.25,3.36-4.91,4.71-11.45,5.25-17.53,3.34-12.55-9.14-21.58-18.3-27.4a42.48,42.48,0,0,0-24.45-6c-.38-9.47-8-17-17.06-18.84C592.64,285.15,581.16,283.79,569.84,284.11Z"/>
      <path id="path3665" d="M555.41,268c-11.8.54-19.23,15.63-12.69,25.37.56,3.19,2.38,5.88,4,8.63-6.5,1.29-13.05,7-19.64,4.81-8.14-6.63-23.88-5.07-26.49,6.45-2.24,6.47-.38,13.86,1.27,19.83-10.07-1.21-23.7,3.12-24.78,14.76-1.5,8.28,4.3,15.56,7.54,22.19-.8,7-9.17,5.14-12.9,9.62-11.62,9.65-9.83,28.12-.25,38.49a40.73,40.73,0,0,0,10.89,9.36c-4.88,10.21-15.86,20.58-12,32.8,4.3,10.74,20.92,13.86,27.85,4.05,2.43-1.49,5.55-8,6.45-2.41,7.27,10.94,22.8,11.74,34.47,9.19,20.08-4.85,37.41-18.32,49.09-35,9,16.94,22.25,35.35,42.64,38.3,5,.37,10.32-3.16,14.94-2.44,6.32,7.63,17.2,3.92,24.13-.65,10.23-5.69,17.75-14.71,24.82-23.87,9.85,8,24.36,15.68,36.51,7.58,5.53-3,10.13-7.44,15-11.41,7.24,10.34,20.19,20.54,33.53,16.07,10.22,12.43,29.67,13.08,43.88,7.51C831.73,465,837,458.2,843,453c1.76,12.34,9.78,24.82,22.85,27.11,11.57,3.91,25.12-.43,32.51-10,2.24-1.45,3.71-5.39,6.12-2,7.49,4,14.61,11.71,23.91,9.47S946,468.45,951.84,461c2.34-5.12,3.83-11.55,9.8-13.45,2.64-4.85,4.77-.37,7.19,2.59,9,11.38,23.4,22.86,38.91,18.59,16.62-5.1,20.75-26,15.68-40.86-3.15-10.17-12.69-16.39-19.06-24.34-3.63-3.31-9.11-6.5-12.5-8.78,18.51-.35,35.41-17.21,33.52-36.12.28-11.92-12.31-19.4-23-20,11.37-8.34,13.32-27,2.33-36.52-8.73-10-25.3-15.72-36.46-6.24-9,5.91-19,15.58-30.45,13.28-4.51-3.09-11.29-.1-14.21-5.62-8.95-7.71-15.71-19.11-27.88-21.9-8.27-2.45-17.06-1.68-25.44-1-10.11,2.4-15.2,15.71-8.52,23.9,3.06,4.23,6.86,9.7,3.2,14.73-6,15.91-14.66,30.83-20.52,46.68-4.65-11.94-23.44-11.08-28.31.33-.55-2,.82-9.69,1.17-13.89,2.11-19,6.16-39.1,1.74-58-4.44-6.15-12.29-8.79-16.62-15.05-7.06-5.63-17.92-5.38-24.85.29-14-.74-20.29,14.24-30.83,20.48-9.93,6.39-21.18,11.68-33,13.63-7.77-11.95-23.85-20.61-37.72-14-10.79,3.62-19.93,17.24-13,27.95,2.88,7.41,5.23,15.37,10.83,21,.63,7.18-2.45,14.26-2.34,21.56-2.74,20.42-6.77,41-16.18,59.3-14-3.79-26.64-15.21-34.8-24.89,14.4-1.26,27.59-16.94,21.36-31.3-.66-2.7-5.4-4.42-2.37-7.14,3.3-7.22,7.52-15.47,3.79-23.26,3.36-4.91,4.71-11.45,5.25-17.52,3.34-12.56-9.14-21.58-18.3-27.41a42.48,42.48,0,0,0-24.45-6c-.38-9.47-8-17-17.06-18.84C578.21,269,566.72,267.68,555.41,268Z"/>
      <path id="path3611" class="cls-3" d="M558.61,275.11c-7.81-1.64-15.14,8.33-9.25,14.54-.23,6.92,8.08,12.71,8.56,17.93-11.22-.54-20.73,7.33-31.63,7.65-4.71-4.28-13.6-8.85-18.26-2-3.4,7.89,0,17,3.35,24.24.84,1.63,4.83,5.28,3.72,5.5a39.15,39.15,0,0,0-27-.95c-8,5.56-2.93,17,2.37,22.49,4.25,4.83-1.12,10.4-2.63,15.16-2.56,3.55-8.13,1.44-11,5.1-7.72,5.48-7.92,16.46-3,23.84,3.48,7.05,9.93,14.09,18.44,13.88-4.21,11-11.93,20.62-16.22,31.2.23,6.93,9,13.28,14.8,7.72C501,453.55,508.4,442.8,517,433.24a180.79,180.79,0,0,0,23.29-37.94c3.2-.87,4.65.28,6,3.1,3.13,3.94,10.55,8.94,5.1,14.21-9.26,13.59-20.9,25.79-35.09,34.18-4.83,2.83-9.22,10.86-3,14.43,5.73,2.95,11.59,5.45,18.26,4,25.22-2.91,45.43-21.76,57.36-43.12,8.65,17.81,19.35,38,39,45.12,7.55.85,15.13-3,22.12-3.75a5.8,5.8,0,0,0,9.55,4.81c15.51-5.08,26.06-19.65,34.26-31.93,4.61,7.85,13.92,10.67,21.28,15.09,10.78,2.45,19-7.39,26.79-13.16,2.09-1.69,4.43-4.42,6.45-5.35,3.1,9.08,11.28,15.65,19.39,20.19,4.75,2,10.67,0,14.36-2.12,6.33,13.49,23.81,14.3,36.4,10.61a27.58,27.58,0,0,0,17.57-13.16c7.35-.81,10.39-12.3,3-15.23-1.55-2.19-2.32-7.7,1.64-6.49,8.7-2.25,14.47-10.32,20.59-16.32,2.69-2.86,6.09-7.46,8.27-9.52-2.93,8.31-6.19,17-10.86,24.31-11.51,8-10.52,24.26-6,35.9,2.41,5.83,7.38,11,13.78,11.22,5.57,4.16,12.2,2,18.11-.14,5.55-.13,6.34-6.94,10.9-8.57,3.48-2.86,2.91-9.88,5.13-12,2.57,3.56,3.21,8.67,7.77,10.75,4.82,2.2,8.7,5.89,13.23,8.34,8.48,2.3,15.09-5.33,21.35-9.69,4.28-3.64,5.29-9.69,7.36-14.21,8.48-4.85,15.89-13.19,21.18-20.34-1,3.43-5.59,6.85-3.25,11.15,2.58,6.52,9.18,9.91,12.76,15.6,7.15,7.15,19.44,12.6,29,7.29,6.49-6,10.61-16,7.37-24.78a16.31,16.31,0,0,0-7.62-15.38c-5.1-5.16-8.61-12-15.34-15.5-7.81-3.68-15.68-12.25-25-9.5-2.42,1.55-1.89.57.07-.95,3.76-2.65,6.88-8.34,11.19-8.78,11.83,5.18,26.58.62,33.27-10.39,3.86-3.72,4.75-9.49,3.83-14.21,3.21-8.16-6.52-13.67-13.2-15-6.9-.25-13.77-1.43-20.62-1.42-8.8.7-15.11,8.52-24,8.53,13.31-7.54,29-11.84,40.49-22.16,6.39-6.75,6.46-18.64-1.49-24.23-6.15-7.44-18.94-12.74-26.75-4.74-10.61,7.29-22.11,16.11-35.57,14.94-3.78-3.05-9.46-3.89-13.56-1.93-2.26-7.55-11-10.16-14.58-16.91-7.32-8.21-19.14-13.55-30.1-9.95-4.83-1.65-11.45-.45-12.32,5.47-1.87,8.33,9.23,12.77,7.18,21.35-1.66,12.88-10.42,23.24-14.37,35.45-7.67,17.48-15,35.08-22.62,52.6-.78-11.3,1.62-22.63,2.08-33.67-2.32-7.31-14.23-6.27-16,.91-4.15,6.56-9.35,12.37-14,18.51-1.61-30,7.76-59.65,5.28-89.54-2.17-5.48-9.57-5.59-12-11-4.41-5.06-12.67-9-18.18-3.39-2.68,1.25-4.9,3.1-7.8,1.79-10.31,1.84-14.31,13.1-23.07,17.85-12.22,8.77-27,14.54-41.44,17.5-4.14-4.19-6.79-9.82-11.91-13.12-9.34-7.84-25.34-4.17-30.76,6.56-2.69,4.91.8,9.53,3.31,13.44.61,5.59,2.62,10.91,7.48,14.07,4.1,7.49-.51,16.29-.19,24.38-2.65,24.12-8.71,49.57-19.68,70.34-7-1.59-14.31-3-20.19-7.73-14.62-8.7-25.68-22-37.42-33.78,1.07-3.26,5.39-4.93,7.25-1.31,7.82,5.79,19.65,2.6,24.31-5.65,6.11-5.82,3.21-17.52-5.47-18.73-3.05-1.08-5.48-1.58-1-2.12a11,11,0,0,0,8-11.73c5.49-3.78,2.18-11.93-.62-15.64,4.83-3,8.14-9.18,6-14.61,4.76-5.49-.29-13.09-5.54-15.93-9.28-9.23-24-15-36.55-9,.44-6.54,2.11-16.38-6-19A69.39,69.39,0,0,0,558.61,275.11Zm22.71,64.39c3.55.3,11,.28,12.28,1.35-3.84,2-7.87,4.46-12.17,4.74.53-1.75-2.79-6.58-.11-6.09Zm337.83.51c2.64,3.5,7.49,6.69,9.66,9.44-8,4.6-11.85,14-20.48,17.93-5.58,2.93-7.87,8.95-8.24,14.87-1.32,4.36-4.34,9.49-.77,13.59-2.72.24-6.37,7.11-6.08,1.86-.3-6.84-3.14-14.65-.57-21.09,10.06-11.29,20.24-22.89,26.3-36.82Zm-155,48c.44,3.52,1.47,6.95-2.74,4.3-1.73-1-5.81-.14-6.34-.15A89.83,89.83,0,0,0,764.16,388.05Zm-50.77,9.54c2.74,5.55,9.83,8.89,14.36,10.17-5.38,3.11-12.21,5-18.51,2.63-4.42.27,3.25-8.29,3.18-11.42C712.84,399,712.88,396.17,713.39,397.59Zm247.85,4.05c-1.92,3,2.23,8-2.74,8.5A140.15,140.15,0,0,1,939,416.87C945.83,411.22,954.71,406.56,961.24,401.64Zm-50.76,3.46c2.66,2.62,6.37,5.08,9.69,5.8-4.62,2.48-10.23,3.45-13.78,7.65-3.9,2.28,1.11-4.61,1.39-6.42C909.1,410.37,909.43,405.56,910.48,405.1Z"/>
      <path id="path2950" class="cls-10" d="M559.93,282.25c-4.55.1-7,.58-5.25,2.33,1.16,1.17,7.47,4.67,4,4.67-1.61,0-3.91-1.17-1.57,2.33,2.84,4.23,9,15.59,10.32,18.08,3.5,6.41-7.18,4.08-13.41,5.24s-16.23,5.14-22.16,7c-3.79,1.19-7.22.94-9.33-.58-7-5.05-9.31-6.8-8.78-1.75,1.1,10.49,2.87,15.22,7.61,18.66,1.61,1.16,1.6,2.33,1.86,4.66.77,7-1.22,24.49-6.52,35-1.76,3.48-10.5,8.83-15.16,10.49s-5.83.45,2.44-6.56a60.66,60.66,0,0,0,9.22-10.38c3-4,5.83-6.39,5.72-10.43-.2-7.19-3.83-13.88-16.22-13.44-6.62.23-11.07-.74-11.66,1.16-.72,2.34,1.62,8.17,6.56,14a7,7,0,0,1,1.6,7c-.81,3.25-5.76,15.87-8.16,17.5s-6.17,1-8.71,2.33c-4.51,2.34-6.76,7.49-2.95,14.5,3.5,6.44,7.69,11.66,11.73,11.67,4.45,0,8.09-6.34,11.26-12.69,2.07-4.12,6.39-10.06,8.5-11.15s1.49,2.42-2,9.95c-3.89,8.47-7,16.81-10.86,25s-8,16.55-13.63,24.49c-4.47,6.27,2.56-.38,3.13,0s-2,3.6-2.33,4.19c-1.17,2.17.88,1.75,6.2-3.83,14.23-14.93,28-31,37.64-49.31,4.66-8.8,6.47-17.34,9.8-26.85s7-19.82,10.32-29.38c1.25-3.62-3.06-4.33-2.15-6.78s2.47-2.19,3.5-1.16c2.33,2.33,1.55,10.6,0,16.32a157,157,0,0,1-5.83,18.66c-2.85,7.07-6.2,14.12-3.5,15.16s5.83-5.83,8.16-5.83-.56,6.6,1.17,9.33c3.45,5.47,10.49,11.88,10.49,16.33,0,7-14,21-23.32,31.49-2.9,3.25-13.72,10.7-18.66,14-7,4.67,7.52-.3,8.16,1.17.52,1.16-9.36,3.5-2.91,3.5,7.56,0,14.26-.73,20.41-3.5a98.23,98.23,0,0,0,14-8.17c7-4.66,14.26-12.68,19.83-21s8.74-16.32,10.49-16.32c3.5,0,5.2,8.48,9.33,16.32,3,5.67,11.53,19.51,16.33,24.49s10.49,8.17,14,10.5l17.06-3.5c5.11-.64,10.69-4.61,13.26-10.5,1.74-4-4.5-1.48-11.44-4.62a119.63,119.63,0,0,1-24.71-15.2c-7.52-6-13.79-13.48-20.59-20.52-2.25-2.33-4.63-4.78-6.89-6.12s-.45-5.51.91-8.17c2.73-5.31,9.14-9.29,15-4.37,3.46,2.87,5.5,3,8,3,4.67,0,5.25-2.74,7-4.67,2.78-3.06,5.42-5.8,1.6-7.94-4.58-2.57-15.11-4.86-19.09-4.23-6.27,1-7,2.84-8.17-.66a13.48,13.48,0,0,1,.73-10.49c2.23-4.75,16.9-.43,20.88-.55,2-.06,4.86-1.08,5.22-2.51,1.16-4.74-1.78-3.27-1.17-6.86.58-3.38,3.5,1.15,4.66-2.25.66-1.92-6.34-10.92-12.82-10-8.17,1.17-20.79,5.35-25.77,8.78-5.57,3.84-14.83,3.77-16.22,2.88-1.82-1.16-1-6.9-3.35-12.28-1.7-3.9-4.81-4.05-6-5.21s2.87-2.25,7-2.33c8.25-.17,24.73,1.07,28.57,2.55,4.92,1.89,14.34,4.77,20.41,3.28,3-.75,9-3.52,10.5-5.83,2.33-3.5-2.34-5.83-2.34-8.17,0-2.83,7-1.16,3.5-4.66a91.28,91.28,0,0,0-8.16-7c-5.55-4.21-12.12-7.43-16.69-6.63-8.54,1.48-14.25,4.21-17.13.8-1.44-1.71-1.17-8.16-1.17-11.66,0-3.09,1.53-4.49-1.16-5.83-7-3.5-16-6.89-25-7C563.2,282.23,561.44,282.22,559.93,282.25ZM790,288.66c-1.38.09-.42,3.65-2,4.09-.8.21-1.33-1.58-2.48-1.54s-2.17,2.64-3.68,2.7c-3,.12-6.08-1.41-8.05.55-4.67,4.64-12.93,12.83-20.52,18.29-6.26,4.38-26.68,12.64-36,15.6-2.48.79-9.33,1.71-11.66-1.78-3.34-5-11.66-15.17-17.49-15.17-3.5,0-13.6,3.83-13.6,7.33,0,4.66,4.27,4.34,4.27,9,0,5.83,3.08,8.27,5.83,11,4.66,4.66,3.29,12.64,2.4,20-2.26,18.91-4.41,37.81-10.64,56.05-5.42,15.89-13.14,30.75-18.55,46.43,12.66-4.37,20.81-14.72,28-26a233.2,233.2,0,0,0,23.65-48.47c1.65-4.71,4.77-17.19,6.23-17.06,1,.1,1,4.24.29,9a22.09,22.09,0,0,0,5.36,17.71c3.77,4,8.56,5.65,11.52,2.18,2.35-2.76,4-6.57,4.19-2.33.19,5.17-1.15,4.35-2.23,12.06-.79,5.69-3.6,5.3-8.27,7.26-2.93,1.23-5.29,2.61-8.56,3.09-3.56.53-6.89-2-10.1-1.16-2.55.66-4.34,2.94-6.23,4.15-1.56,1,1,4.17.4,5.76-.76,2-3.44,3.13-2.77,4.67,2.14,4.85,10,7.68,14.91,11.07,3.41,2.34,4.18,2.45,7.69.77,12.51-6,22.32-19.4,35-25.73,2.34-1.17,3.51.47,1.86,2.81-1.51,2.13-4.35,4.87-4.19,8.16.2,4.2,4.67,8.16,9.33,12.83,3.16,3.16,6,5,8.78,5,4.84-.14,9.09-4.88,9.41-9.62.23-3.49-.26-7.34,1.34-4.37,4.62,8.55,4.05,14.74,6.13,17.2,5.42,6.45,14,8.17,29.48,3.9a14.77,14.77,0,0,0,10.82-10.57c1-3.28,5.46-1.77,6.34-2.66s-.18-1.47-2.33-3.2c-1.44-1.17-2.22-1.85-2.33-3.79-1.17-19.83-4.8-39.12-.11-59,1-4.37-.76-5.31-2.81-1.68-3.48,6.19-14.18,18.53-17.38,23.29-5.8,8.63-6.15,13.27-7.69,9.37-2.42-6.13-2.59-25.57-2.26-32.29.92-18.52,4.18-36.76,5.29-55.21.23-3.93,1.66-13.36.47-16.29-1.7-4.19-1.51,1.11-3.1-.7-3.5-4-4.58-6.7-12.53-12.13a2.52,2.52,0,0,0-1.39-.59Zm95.15,5.43a13.77,13.77,0,0,0-6.34,1.66c-.78.46-4.67-2.36-5.84-1.19-1.46,1.47,3.82,6.66,5.77,10.8,5,10.61-1.72,21.56-6.49,32-11.48,25.05-21.4,50.82-33.16,75.73-3.06,6.49-1.3,8.29,2.92,5.64,6.08-3.82,16.22-15.2,18.73-18.47,2.84-3.71,10.33-11.76,13.92-15.35,4.66-4.66,4.66,0,3.46,10.5-1.71,11.51-7,17.49-10.46,29.16a12,12,0,0,1-4.94,6.64c-4.73,2.74-6.12,7.35-6.12,14.35,0,6.5,2,13.22,5.23,17.49,3.5,4.66,2.33-.59,4.67,0,1.35.34,2.3,3,3.49,3.5,2.44,1,5.47,2,7.37.38,3.13-2.71,3.07-.54,6.1-1.55,3.48-1.16.84-2.95,1.69-4.66,1.17-2.33,4.46-.52,5.84-2.33,1-1.4.34-4.94,1.16-7,1.23-3.07,3.5-3.5,3.5-7,0-5.21-1.06-12.28,0-18.66s4.93-15.68,7-19.82c2.33-4.67,0-4.67-2.33-2.34a122,122,0,0,1-9.33,8.76c-1.31,1-2.64,1.21-3.5-1.76-.68-2.34-2.56-27.94-3.5-32.65-.47-2.35,1.47-4,4.09-7,3.88-4.41,10.36-10.54,16.68-20.08,6.64-10,11.88-20.74,11.88-32.4,0-4.66-3.23-4.22-5.83-7s-5.43-6.07-7.69-8.52c-7.39-8-12.11-8.8-18-8.79Zm94,11.48c-13.48,9.33-24.55,18.29-41.47,18.66-5.56.13-6.37-3.5-9.33-3.5-2.33,0,1.73,3.5-1.16,3.5-1.49,0-2.33-3-4.67-2.33-2.69.74-3.5,5.83-1.13,9.48,2.77,4.25,10.46,11.51,15.13,15,4.93,3.7,8.13,1.83,12.83-1.17,2.61-1.66,6.57-4.77,10.49-7,7-4,6.68-1.83,2.33,1.16-5.76,4-25.73,15.62-28,17.5-2,1.67,0-2.93-2.34-1.17-5.5,4.15-8.49,9-12.83,12.83-3,2.7-7.51,4-10.49,8.16-1.63,2.25-1.36,7.17-1.79,9.33-.51,2.59-4.15,4.84-.54,7,5.83,3.5,10.59,8.89,15.16,11.12,1.45.71,3.65-1.66,5.83-3,1.64-1,3.93-1.15,5.83-2.33,3.92-2.45,10.19-7.83,12.83-9.33,3.35-1.91,2.55,1.13-1.9,6.2-7,8-14.43,17.51-22.59,22.95-3.5,2.34-1.17-1.16-4.67,1.17-2.85,1.9-5.51,4.14-9.33,5.83-3.52,1.56-4.27,2.58-3.5,4.35.43,1-1.16,2-1.16,3.82s1.11,2.2,1.16,3.22c.14,2.47-1.53,4.35-.59,6.54a16.69,16.69,0,0,0,5.26,5.94c3.5,2.41-2.33,1.79,2.33,5.9,1.91,2.31,5,2.59,7,4.05,3.19,2.41,5.18,5.21,8.16,4.67,1.57-.29,2.74-1.86,4.09-2.88,2.36-1.79,1.74-.05,7.57-5.29,6.14-5.51,3.5-8.16,4.67-11.06a9.23,9.23,0,0,1,4.66-4.73c5.84-2.92,10.81-8.12,15.16-13.36,3.94-4.73,9.54-14.63,11.87-11.13,1.83,2.74,3.27,7.35,4.46,10,1.79,3.91-.58,5.27-2.33,7-3,2.93-1.17,3.5,4.66,9.33,1.62,1.62,4.81,6.85,7,8.16,7.38,4.43,17.69,8.74,19.83,2.33,1.16-3.49,4.07-6.23,4.05-9.33,0-2.18-1.36-4.24-1.72-7-.24-1.81.74-4.42,0-5.83-1.31-2.49-4.1-3.08-5.83-5.26-3-3.73-5.57-8.36-8.53-10.71C990,410,973.5,400,972.34,401.54s2.21,2.42,1.48,3.16c-1.17,1.17-4.53-2.72-5.84-1.17-.67.81-.21,2.78,1.17,4.1,2.39,2.27,4.67,2.9,1.35,4.25-13,8-29.79,11.08-44.5,17.06-3.5,1.42-1.68-3.18-1.16-5,2.42-8.46,14.58-16.41,22-21,8.82-5.44,21.7-16.89,29.3-24.49,2.33-2.33,2.33-1.79,9.33,1.08,3.88,1.58,9.95,1.66,14-.54,5.14-2.79,9.32-8.14,11.66-12.82,1.17-2.34-2.42-3-2.33-4.67s3.5-2.33,2.33-4.66c-.8-1.62-5.11-2.68-7-3.5-5.37-2.33-7.08-.44-10.5-.65-2.35-.15-3.48-1.19-7-1.32-6.3-.23-10.71,3.89-16.32,6.63-4,2-9.66,1.43-14,2.33-12.8,2.67-24.49,10.5-34.8,17.39-2.35,1.56-2.72-2.52-1.89-4.56,2-4.77,11.33-9.7,15.52-12.83,11.05-8.25,26.2-16.09,38.67-22.15,6.85-3.34,11.45-4.42,17.49-8.75,4.06-2.91,6.91-6.9,7-9.91.14-5.19-5-8.72-10.5-12.83-2.33-1.74-6.15-2.92-8.68-1.17ZM770.9,318.4c5.43.37,2.33,16.33,1.16,19.83s-3.49-2.34-9.11-8.24c-3.09-3.25-8.79-5.28-11-4.12-10.21,5.36-23.55,19.27-31.2,27.52-1.23,1.32-1.82,4.48,1.17,3.5a57.9,57.9,0,0,1,10.49-2.34c3.5-.57,6.41,8.17,5.25,9.33-1.73,1.75-4.06,5.43-6,5.43-2.46,0-4.17-2.82-6.23-4.26-2.37-1.66-5.47-2.53-7-4.67s-1.17-5.48-1.17-9.32c0-3.53-.33-6.89,2.34-10.5,6-8.26,19.59-11.32,28-14.64a106.61,106.61,0,0,1,16.33-5.19C768.56,319.68,766.75,318.12,770.9,318.4Zm-1.17,29.16c1.58,3.67,1.15,10.5.55,14.76-.55,3.9-4.44-3.15-9.88-3.14-2.81,0-6.13,2.07-7.72,1.2s-.83-3.17-1.13-4.66c-.25-1.21-3.85-2.37-3.47-3.5.56-1.62,3.86-1.15,6.93-1.89,2.61-.64,5.1-.58,7.83-2.08l3.39-1.86C768,345.42,769,345.75,769.73,347.56Zm-14,19.53c2.12,0,3.77,3,3.24,5.76-.43,2.22-5.49,4.84-7.91,5-1.63.12-2.73-2.28.86-8.17C752.64,368.55,754.25,367.07,755.74,367.09Zm-180.25,1.17a1,1,0,0,1,.65.29c4.21,3.9-3.74,14.45-12,15.67s-17-.47-6.64-8.67c3.32-2.63,7.18-5.48,9.95-4.82C571.25,371.65,573.85,368.16,575.49,368.26ZM775.56,411.7c0,7-6-6.72-14.37-11.84-5.45-3.32-1.94.58-3.12,1.34-.62.4-3.75-2.54-4.67-1.16-1.16,1.76,7,7,3.14,8-4,1.07-8.41,2.23-9.53.15-2.16-4-1.33-13.43,1.73-19.83,1.24-2.6,3.5-1.16,8.16-4.66,2.44-1.83,4.14-2.12,5.87-3.5,2.93-2.33-4-3.43,0-4.66,1.06-.33,4.6-3.46,5-5.84.82-4.66,1.8-3.49,2-1.16.73,9.49,1.54,18.62,2.33,28C772.5,401.68,775.56,405.87,775.56,411.7Zm-38.48-37.94c1.35,1.14,1.48,3.44,0,5.28-2.37,2.94-7.52,4.66-8.17,3.9C726.58,380.21,735.32,372.28,737.08,373.76ZM591.3,404.7c2.21,0,3.41,3.47,1.83,4.26C591.84,409.61,588.19,404.7,591.3,404.7Z"/>
      <path id="path3938" d="M786.5,449.05c-4.44-.26-6.47,5.52-10.86,3.28-5.15-.73-14.86.11-13.78,7.44,2,3.11-2.9,4.08-3.28,7.07-1.37,4.45-8.2,8.32-4.3,13.44,1.81,3.34,6.05,2.74,8.75,2.92,4.37,2.9,9.78-1.08,13.52-1,5.75,3.75,12.12-3.24,11.62-9,.41-3.76,1.74-1.88,4.16-.91-5.62,1.8-5.23,9.93.4,11.48,11.21,3.83,26.89-3.11,26.89-16.11-1.73-3.42,1.53-2.95,3.1-5.1,2.93-5.76-4.41-10.23-9.58-8.93-5.67.33-13.07-.12-17.68.36A8.49,8.49,0,0,0,786.5,449.05Zm201.89.69c-3.53-.5-4.69,4.6-8.12,2.85-6.77-.37-18.56-.36-19,8.74-.1,3.13,4.87,4,1.86,6.93-3.2,7.24,2,16.47,10.42,16,5.71,1.84,16.26.38,15.23-7.55-1.26-5.39-7.94-5.49-11.91-6.63,3.28-1.79,6.33-4.63,10.06-3.53,2.55-1.19,4.24-.91,6.77,0,2.31.17-2.11,3.9-2,5.68-4.67,5.19-.55,16.48,7.07,11.81,2.37-1,3.18-5.47,5.36-1.86,9.26,5.51,19.38-3.78,22.15-12.35,3.24-6.64-5.34-14.39-10.2-8.24-1.76-1.89-3.71-2.55-3.13-5.54-.88-6-8.69-5.2-11.48-2.26-1.55-4-6.47-4.07-9.66-3.32C991.21,449.15,989.55,449.79,988.39,449.74ZM604.46,452c-8.25,3.88-8.62,14.21-11,21.9-.47,6.75,6.34,10.86,12.43,10.42,8.36,1.6,16.25-3.49,19.9-10.78,0-2.67,2.87-2.53,3.09-1.35-5.46,2.32-5.56,11.53,1,12.28,12.63,3.6,27.85-11.18,21.5-23.51-5.6-5.5-15.09-3.61-21.79-1.31-2.7.59-3.61,4.67-6.27,2.44-6.92-1.94-9,6.35-13.49,9.26-4.45,1.14.17-5.15.77-6.67C614.81,459.65,612,450.21,604.46,452Z"/>
      <path id="path3010" class="cls-3" d="M787.22,453.68c-3.72.2-8.13,5-5.83,8.62,1.61,2.52,7,.8,8.93-1.62S792.08,453.43,787.22,453.68Zm201.76.69c-1.83.16-3.24,2-3.79,3.69s-.17,3.76,1.64,3.89c.91.07,2.62-2.21,3.53-4S991.32,454.16,989,454.37Zm5,.73a4.77,4.77,0,0,0-1.54,5.58c.71,1.55,2.44,2.11,4-.7.66-1.18,1.27-2.62.91-3.77A2.12,2.12,0,0,0,994,455.1Zm-206.35,2.08c1.59,1.57-1.6,4.66-3.32,3.06S786.06,455.59,787.66,457.18Zm219-1.06c-3.12,1.06-4.91,6.73-6.74,10.39-2,4-5.1,8.53-5.47,12.83-.19,2.16,2.46.76,3.65-1s2.38-4.31,3.07-5.47c.9-1.53,2.08-3.47,3.81-4.4s3.61-.61,2.19,1.77c-2,3.34-2.57,6.36-.69,7.91s5.76,1.4,8.89-1.06a18.91,18.91,0,0,0,6.27-8.27c1.22-3.56.27-5.19-1.17-4.66s-2.08,3.78-3.5,5.83c-.81,1.18-2.05,3.25-3.84,4.3-2,1.2-4.41,1.23-2.42-2,2.14-3.47,2.77-7,1.6-8.16-2.13-2.13-4.41.72-5.83,0-.78-.4,1-3.58,1.7-4.93s.43-3.79-1.52-3.13Zm-402.37,1.2c-2.27,2.76-3.41,7.09-4.5,10.75-1,3.47-3.59,9.81,2,10.79,3.81.67,11.17,1.59,14-.69s4-4.44,5.81-7.1c4.08-6.09-2.05-5.85-4.1-1.06-1.93,4.52-8.08,7.68-12.17,5.35-5.31-3,.64-11.34,2.3-15.27,1.33-3.14-1.67-4.81-3.35-2.77Zm164.68,4c4.64-.24,7.22.22,4.67,1.65-5,2.77.35,6.82-.76,9.48-1.52,3.6-8.49,1-8.71,4.42-.3,4.46,7.66,2.31,10.24.09,1.59-1.37,3.48-3.82,3.49-5.83s-1.66-3.57-1.89-5.1c-.16-1.08,1.65-1.49,2.63-3.44s.66-5.42-1.21-5.45c-2.33,0-5.5-.15-8.85,0C765.54,457.31,765.73,461.52,769,461.36Zm212.32-4.18c-3.15,0-9.14-.18-13.18,1.24-2.92,1-2.55,3.42-.8,3.42s4.51-.16,6.52,0c3.35.28-4.28,3.5-5.84,7s-1.84,8,2,9.77a27.94,27.94,0,0,0,9.7,1.5c3.68-.16,6.34-1.56,3.53-3.54-3.24-2.3-14.66-.51-11.18-7.73,1.43-3,5.37-4.37,8.23-5.83C982.46,461.88,984.1,457.18,981.28,457.18Zm-166.07,1.17H800.05c-3.62,0-4.66,2.33,0,2.33h15.16C819.88,460.68,819.88,458.35,815.21,458.35Zm-181.89,4.81c-4.57,1.85-5.43,3.6-3.53,4.09s6.55-.28,9.36-1.29c4.67-1.66,5.84,4.05,2.3,7.55-1.57,1.54-4.52,1.46-7,1.77s-6.63,2.8-4.63,4.06c3.4,2.13,9.36.59,12.83-2.34,3.15-2.73,5.53-6.25,5.86-10.31.4-4.85-4.72-4.45-8.91-4.45A28.5,28.5,0,0,0,633.32,463.16Zm164.4.4c-5.08.62-8.16,5.28-1.17,4.11,4.33-.72,16.55-2.37,14,3.5-1.37,3.15-4.54,4.51-9.22,4.85-1.12.08-4.78-.33-6.57.31-3.08,1.11-3.31,2.95,3,3.56,6.52.63,11.88-1.61,15.31-6.24,1.92-2.6,4-8.76-1.32-10.14-2.87-.74-10.73-.34-14,.05ZM783.07,466c-3.66.79-5.23,11.37-4,12.33,1.88,1.42,3.66-1.51,4.13-3.77s.85-4.88,1.87-6.69c.81-1.45-1.13-2.06-2-1.87Zm-24.13,8.79c-3.31,4.07,1.62,5.26,4.16,1.06a72.1,72.1,0,0,0,4.3-8.17c1.05-2.36-2.39-3.07-3.24-1A34.09,34.09,0,0,1,758.94,474.78Z"/>
      <path id="path3766" class="cls-3" d="M325.41,361.22l-9.51-17.16-11.23,8.17,15.22-22-37.68-.65-2,4H257.4l-7.5,10.56-17.78-.61,8.52-14.7H205.4l-11,14.55c-10.45.27-20.9-.16-31.35,0l-5.25,6.56H109.37c-6.84,9.71-13.9,19.23-20.84,28.86q28.77.21,57.54.29l5.65-6.7,17-.45a96.87,96.87,0,0,1-36.23,13.82c5.23,8.94,13.19,15.58,19.68,23.51,22.85-6.16,43.32-19.85,59.15-37.21l16,.28c-6.17,6-23.78,14.49-30.26,19.58l23.32,17c8.76-3.38,14.22-7.12,21.32-11.68l11.61,10.3c18-5.89,44.23-16.64,59.6-27.9q-9.86,14.21-19.68,28.46,17.86,0,35.72,0c7.49-9.95,14.6-21.54,22.41-30.43,5.56,3.22,15.71,11.15,15.71,11.15l16.58-10.06,52.75.47,19.66-29.29H400l-9.63,12.22c-5.61-5.7-11.91-10.58-19.63-13.17l13.88-22.37H349.72l-24.31,34.65Z"/>
      <path id="path2993" class="cls-11" d="M372.06,333.56H353.45l-46.81,67.53,18.77,0,23.32-32.49c8,3.38,11.67,6.39,18.74,11.7l18.68-11.7c-12.63-13-20.17-15.18-27.36-13.63l13.27-21.36Zm-163.27,1.72L198.4,350.42l-31.29-.09-10.63,14.95,30.37-.08c-3.06,4.78-16.18,15-23.84,18.66-6.08,2.9-18.61,6.38-18.61,6.38l10.14,10.95C173.81,396,197,378.83,208.21,365l28.51-.05L245.5,351l-26.09-.37,9.32-15.31-19.94-.07Zm78.46,1.78-40,55.82,8.17,6.51S273.9,394,284.6,388.74c12-5.93,24.37-14.73,35.15-22.74l-6-11.6C306,359.76,289.66,374,280.7,374.15c0,0,19.09-24.94,26.09-37l-19.54,0ZM261.71,341c-6.27,6.53-9.31,14.47-15.38,21.17-10.66,11.75-22.24,22.95-36.46,30.14L222,401.53c13.2-7,35.77-26.53,44.18-38.79,3.92-5.73,9.8-14.09,12.56-21L261.71,341ZM113,356.89l-10.84,15,39.88.17,10.28-15.16Zm290.34,0-10.43,14.4,40,.29,10-14.69Z"/>
    </g>
  </g>
</svg>
